<svg xmlns="http://www.w3.org/2000/svg" version="1.1" xmlns:xlink="http://www.w3.org/1999/xlink" xmlns:svgjs="http://svgjs.dev/svgjs" width="1000" height="1000" viewBox="0 0 1000 1000"><rect width="1000" height="1000" fill="#ffffff"></rect><g transform="matrix(0.7,0,0,0.7,150.00812249032936,262.89214834315555)"><svg viewBox="0 0 364 247" data-background-color="#ffffff" preserveAspectRatio="xMidYMid meet" height="678" width="1000" xmlns="http://www.w3.org/2000/svg" xmlns:xlink="http://www.w3.org/1999/xlink"><defs></defs><g id="tight-bounds" transform="matrix(1,0,0,1,-0.00422369497124464,-0.10000135010412237)"><svg viewBox="0 0 364.0084473899425 247.2" height="247.2" width="364.0084473899425"><g><svg viewBox="0 0 395.52 268.59965668670753" height="247.2" width="364.0084473899425"><g transform="matrix(1,0,0,1,0,199.1865696667756)"><svg viewBox="0 0 395.52 69.41308701993194" height="69.41308701993194" width="395.52"><g><svg viewBox="0 0 395.52 69.41308701993194" height="69.41308701993194" width="395.52"><g><svg viewBox="0 0 395.52 69.41308701993194" height="69.41308701993194" width="395.52"><g transform="matrix(1,0,0,1,0,0)"><svg width="395.52" viewBox="1.5499999523162842 -35.5 205.69000244140625 36.099998474121094" height="69.41308701993194" data-palette-color="#2b2b2b"><path d="M14.45 0.6L14.45 0.6Q10.05 0.6 6.8-0.85 3.55-2.3 1.55-4.8L1.55-4.8 5.9-9.6Q7.8-7.5 10.08-6.5 12.35-5.5 14.7-5.5L14.7-5.5Q17.4-5.5 18.8-6.7 20.2-7.9 20.2-10.15L20.2-10.15Q20.2-12 19.13-12.95 18.05-13.9 15.5-14.3L15.5-14.3 11.85-14.9Q7.15-15.7 5.05-18.38 2.95-21.05 2.95-24.9L2.95-24.9Q2.95-29.95 6.25-32.73 9.55-35.5 15.5-35.5L15.5-35.5Q19.55-35.5 22.55-34.25 25.55-33 27.4-30.85L27.4-30.85 23.15-26.1Q21.75-27.65 19.85-28.53 17.95-29.4 15.55-29.4L15.55-29.4Q10.5-29.4 10.5-25.25L10.5-25.25Q10.5-23.45 11.63-22.55 12.75-21.65 15.3-21.2L15.3-21.2 18.95-20.55Q23.2-19.8 25.5-17.35 27.8-14.9 27.8-10.75L27.8-10.75Q27.8-8.3 26.95-6.23 26.1-4.15 24.4-2.63 22.7-1.1 20.23-0.25 17.75 0.6 14.45 0.6ZM45 0.6L45 0.6Q38 0.6 34.67-4.15 31.35-8.9 31.35-17.45L31.35-17.45Q31.35-26 34.67-30.75 38-35.5 45-35.5L45-35.5Q52-35.5 55.32-30.75 58.65-26 58.65-17.45L58.65-17.45Q58.65-8.9 55.32-4.15 52 0.6 45 0.6ZM45-5.45L45-5.45Q48.2-5.45 49.42-7.83 50.65-10.2 50.65-14.45L50.65-14.45 50.65-20.5Q50.65-24.7 49.42-27.08 48.2-29.45 45-29.45L45-29.45Q41.8-29.45 40.57-27.08 39.35-24.7 39.35-20.5L39.35-20.5 39.35-14.4Q39.35-10.2 40.57-7.83 41.8-5.45 45-5.45ZM71.2-12.95L71.2 0 63.8 0 63.8-34.9 77.3-34.9Q79.84-34.9 81.84-34.13 83.84-33.35 85.22-31.9 86.59-30.45 87.3-28.4 88-26.35 88-23.8L88-23.8Q88-20.1 86.4-17.45 84.8-14.8 81.84-13.95L81.84-13.95 88.7 0 80.5 0 74.65-12.95 71.2-12.95ZM71.2-18.75L75.5-18.75Q78.15-18.75 79.17-19.75 80.2-20.75 80.2-23.05L80.2-23.05 80.2-24.55Q80.2-26.85 79.17-27.85 78.15-28.85 75.5-28.85L75.5-28.85 71.2-28.85 71.2-18.75ZM118.79-28.75L108.74-28.75 108.74 0 101.24 0 101.24-28.75 91.19-28.75 91.19-34.9 118.79-34.9 118.79-28.75ZM147.14 0L124.59 0 124.59-34.9 132.14-34.9 132.14-6.15 147.14-6.15 147.14 0ZM164.99 0.6L164.99 0.6Q157.99 0.6 154.66-4.15 151.34-8.9 151.34-17.45L151.34-17.45Q151.34-26 154.66-30.75 157.99-35.5 164.99-35.5L164.99-35.5Q171.99-35.5 175.31-30.75 178.64-26 178.64-17.45L178.64-17.45Q178.64-8.9 175.31-4.15 171.99 0.6 164.99 0.6ZM164.99-5.45L164.99-5.45Q168.19-5.45 169.41-7.83 170.64-10.2 170.64-14.45L170.64-14.45 170.64-20.5Q170.64-24.7 169.41-27.08 168.19-29.45 164.99-29.45L164.99-29.45Q161.79-29.45 160.56-27.08 159.34-24.7 159.34-20.5L159.34-20.5 159.34-14.4Q159.34-10.2 160.56-7.83 161.79-5.45 164.99-5.45ZM200.54 0L200.54-4.95 200.09-4.95Q199.64-3.85 198.99-2.85 198.34-1.85 197.39-1.07 196.44-0.3 195.16 0.15 193.89 0.6 192.29 0.6L192.29 0.6Q189.74 0.6 187.76-0.6 185.79-1.8 184.44-4.1 183.09-6.4 182.41-9.7 181.74-13 181.74-17.15L181.74-17.15Q181.74-26.05 184.99-30.78 188.24-35.5 195.04-35.5L195.04-35.5Q197.74-35.5 199.79-34.77 201.84-34.05 203.31-32.73 204.79-31.4 205.74-29.55 206.69-27.7 207.24-25.45L207.24-25.45 200.24-23.75Q199.94-24.85 199.56-25.88 199.19-26.9 198.59-27.7 197.99-28.5 197.09-28.98 196.19-29.45 194.89-29.45L194.89-29.45Q192.04-29.45 190.86-27.1 189.69-24.75 189.69-20.5L189.69-20.5 189.69-14.8Q189.69-10.55 190.96-8 192.24-5.45 195.49-5.45L195.49-5.45Q198.04-5.45 199.29-6.95 200.54-8.45 200.54-10.8L200.54-10.8 200.54-13.35 194.59-13.35 194.59-18.65 207.24-18.65 207.24 0 200.54 0Z" opacity="1" transform="matrix(1,0,0,1,0,0)" fill="#2b2b2b" class="undefined-text-0" data-fill-palette-color="primary" id="text-0"></path></svg></g></svg></g></svg></g></svg></g><g transform="matrix(1,0,0,1,114.55347909792964,0)"><svg viewBox="0 0 166.4130418041407 166.4130418041407" height="166.4130418041407" width="166.4130418041407"><g><svg></svg></g><g id="icon-0"><svg viewBox="0 0 166.4130418041407 166.4130418041407" height="166.4130418041407" width="166.4130418041407"><g><path d="M0 83.207c0-45.954 37.253-83.207 83.207-83.207 45.954 0 83.207 37.253 83.206 83.207 0 45.954-37.253 83.207-83.206 83.206-45.954 0-83.207-37.253-83.207-83.206zM83.207 160.153c42.497 0 76.947-34.45 76.946-76.946 0-42.497-34.45-76.947-76.946-76.947-42.497 0-76.947 34.45-76.947 76.947 0 42.497 34.45 76.947 76.947 76.946z" data-fill-palette-color="accent" fill="#f4a424" stroke="transparent"></path><ellipse rx="82.37445569304965" ry="82.37445569304965" cx="83.20652090207035" cy="83.20652090207035" fill="#f4a424" stroke="transparent" stroke-width="0" fill-opacity="1" data-fill-palette-color="accent"></ellipse></g><g transform="matrix(1,0,0,1,37.63543008462161,37.43888664766812)"><svg viewBox="0 0 91.14218163489748 91.53526850880446" height="91.53526850880446" width="91.14218163489748"><g><svg xmlns="http://www.w3.org/2000/svg" xmlns:xlink="http://www.w3.org/1999/xlink" version="1.1" x="0" y="0" viewBox="8.052000999450684 5.129500389099121 41.56199645996094 41.741249084472656" enable-background="new 0 0 58 52" xml:space="preserve" height="91.53526850880446" width="91.14218163489748" class="icon-x-0" data-fill-palette-color="quaternary" id="x-0"><path fill-rule="evenodd" clip-rule="evenodd" d="M49.611 16.958c0-1.65-1.227-3.564-2.725-4.254L31.559 5.647c-1.498-0.69-3.951-0.69-5.45 0l-15.331 7.057c-1.499 0.69-2.726 2.604-2.726 4.254v18.083c0 1.65 1.227 3.564 2.726 4.255l15.331 7.058c1.499 0.689 3.952 0.689 5.45 0l15.33-7.058c1.498-0.69 2.725-2.604 2.725-4.255L49.611 16.958zM44.351 19.476l-11.574 5.327c-0.999 0.459-1.816 1.736-1.816 2.836V39.92c0 1.1-0.9 2-2 2h-0.262c-1.1 0-2-0.9-2-2V27.638c0-1.101-0.817-2.376-1.816-2.836l-11.571-5.325c-0.999-0.46-1.44-1.654-0.98-2.653l0.109-0.239c0.46-0.999 1.653-1.44 2.652-0.98l11.921 5.488c0.999 0.46 2.634 0.46 3.633 0l11.924-5.488c0.999-0.46 2.192-0.019 2.652 0.98l0.109 0.239C45.791 17.822 45.35 19.016 44.351 19.476z" fill="#ffffff" data-fill-palette-color="quaternary"></path></svg></g></svg></g></svg></g></svg></g><g></g></svg></g></svg><rect width="364.0084473899425" height="247.2" fill="none" stroke="none" visibility="hidden"></rect></g></svg></g></svg>